# xmcd CD database file
#
# Track frame offsets:
#	150
#	20178
#	31157
#	44962
#	63057
#	79499
#	96001
#	98778
#	120079
#	138921
#	156659
#	171979
#	191505
#
# Disc length: 2981 seconds
#
# Revision: 5
# Processed by: cddbd v1.5.1PL0 Copyright (c) Steve Scherf et al.
# Submitted via: CDex 1.51
#
DISCID=af0ba30d
DTITLE=26 Pinel - Tout ceci n est pas si sûr
DYEAR=2004
DGENRE=New Age
TTITLE0=Baila
TTITLE1=Tout ceçi n'est pas si sûr
TTITLE2=Elevation jusqu'aux subtilités molécualires d'une rétine de poisson
TTITLE3=Faut qu'ça pousse
TTITLE4=Bleu
TTITLE5=Vie de famille
TTITLE6=Interlude
TTITLE7=Ne veux pas
TTITLE8=Les moineaux
TTITLE9=Hambourg
TTITLE10=Murs
TTITLE11=A l'heure où la ville dort
TTITLE12=Fin
EXTD=YEAR: 2004
EXTT0=
EXTT1=
EXTT2=
EXTT3=
EXTT4=
EXTT5=
EXTT6=
EXTT7=
EXTT8=
EXTT9=
EXTT10=
EXTT11=
EXTT12=
PLAYORDER=
